<svg width="175" height="33" viewBox="0 0 175 33" fill="none" xmlns="http://www.w3.org/2000/svg">
<path d="M47.798 3.5927H51.102V10.8307H55.526V13.3927H47.798V3.5927ZM56.4386 3.5927H59.7426V13.3927H56.4386V3.5927ZM69.1732 8.2687C69.7518 8.48337 70.1998 8.79603 70.5172 9.2067C70.8345 9.61737 70.9932 10.112 70.9932 10.6907C70.9932 11.5494 70.6385 12.2167 69.9292 12.6927C69.2198 13.1594 68.1932 13.3927 66.8492 13.3927H61.3332V3.5927H66.5692C67.8758 3.5927 68.8605 3.82603 69.5232 4.2927C70.1952 4.75937 70.5312 5.38003 70.5312 6.1547C70.5312 6.61203 70.4145 7.0227 70.1812 7.3867C69.9572 7.7507 69.6212 8.0447 69.1732 8.2687ZM64.5812 5.9027V7.3587H66.1212C66.8398 7.3587 67.1992 7.11603 67.1992 6.6307C67.1992 6.14537 66.8398 5.9027 66.1212 5.9027H64.5812ZM66.5692 11.0827C67.2972 11.0827 67.6612 10.826 67.6612 10.3127C67.6612 9.79937 67.2972 9.5427 66.5692 9.5427H64.5812V11.0827H66.5692ZM76.3613 10.9287H75.4653V13.3927H72.1613V3.5927H76.8793C77.7846 3.5927 78.5733 3.74203 79.2453 4.0407C79.9173 4.33937 80.4353 4.7687 80.7993 5.3287C81.1633 5.8887 81.3453 6.54203 81.3453 7.2887C81.3453 7.9887 81.1866 8.60003 80.8693 9.1227C80.5519 9.64537 80.0946 10.0607 79.4973 10.3687L81.5553 13.3927H78.0273L76.3613 10.9287ZM78.0133 7.2887C78.0133 6.9247 77.9013 6.6447 77.6773 6.4487C77.4533 6.24337 77.1173 6.1407 76.6693 6.1407H75.4653V8.4367H76.6693C77.1173 8.4367 77.4533 8.3387 77.6773 8.1427C77.9013 7.93737 78.0133 7.6527 78.0133 7.2887ZM89.2709 11.6847H85.5469L84.8889 13.3927H81.5289L85.8129 3.5927H89.0609L93.3449 13.3927H89.9289L89.2709 11.6847ZM88.3609 9.3047L87.4089 6.8407L86.4569 9.3047H88.3609ZM98.0722 10.9287H97.1762V13.3927H93.8722V3.5927H98.5902C99.4956 3.5927 100.284 3.74203 100.956 4.0407C101.628 4.33937 102.146 4.7687 102.51 5.3287C102.874 5.8887 103.056 6.54203 103.056 7.2887C103.056 7.9887 102.898 8.60003 102.58 9.1227C102.263 9.64537 101.806 10.0607 101.208 10.3687L103.266 13.3927H99.7382L98.0722 10.9287ZM99.7242 7.2887C99.7242 6.9247 99.6122 6.6447 99.3882 6.4487C99.1642 6.24337 98.8282 6.1407 98.3802 6.1407H97.1762V8.4367H98.3802C98.8282 8.4367 99.1642 8.3387 99.3882 8.1427C99.6122 7.93737 99.7242 7.6527 99.7242 7.2887ZM109.991 9.8367V13.3927H106.687V9.7947L102.991 3.5927H106.477L108.479 6.9807L110.495 3.5927H113.687L109.991 9.8367Z" fill="#720418"/>
<path d="M54.81 20.5027C55.4513 20.5027 56.032 20.65 56.552 20.9447C57.072 21.2307 57.4793 21.638 57.774 22.1667C58.0687 22.6954 58.216 23.2977 58.216 23.9737C58.216 24.6497 58.0687 25.252 57.774 25.7807C57.4793 26.3094 57.072 26.721 56.552 27.0157C56.032 27.3104 55.4513 27.4577 54.81 27.4577C54.238 27.4577 53.7223 27.3364 53.263 27.0937C52.8123 26.851 52.4483 26.5 52.171 26.0407V27.3927H51.287V17.7467H52.21V21.8547C52.496 21.4127 52.86 21.079 53.302 20.8537C53.7527 20.6197 54.2553 20.5027 54.81 20.5027ZM54.745 26.6387C55.2217 26.6387 55.655 26.5304 56.045 26.3137C56.435 26.0884 56.7383 25.772 56.955 25.3647C57.1803 24.9574 57.293 24.4937 57.293 23.9737C57.293 23.4537 57.1803 22.99 56.955 22.5827C56.7383 22.1754 56.435 21.8634 56.045 21.6467C55.655 21.4214 55.2217 21.3087 54.745 21.3087C54.2597 21.3087 53.822 21.4214 53.432 21.6467C53.0507 21.8634 52.7473 22.1754 52.522 22.5827C52.3053 22.99 52.197 23.4537 52.197 23.9737C52.197 24.4937 52.3053 24.9574 52.522 25.3647C52.7473 25.772 53.0507 26.0884 53.432 26.3137C53.822 26.5304 54.2597 26.6387 54.745 26.6387ZM62.8925 27.4577C62.2339 27.4577 61.6402 27.3104 61.1115 27.0157C60.5829 26.7124 60.1669 26.2964 59.8635 25.7677C59.5602 25.239 59.4085 24.641 59.4085 23.9737C59.4085 23.3064 59.5602 22.7084 59.8635 22.1797C60.1669 21.651 60.5829 21.2394 61.1115 20.9447C61.6402 20.65 62.2339 20.5027 62.8925 20.5027C63.5512 20.5027 64.1449 20.65 64.6735 20.9447C65.2022 21.2394 65.6139 21.651 65.9085 22.1797C66.2119 22.7084 66.3635 23.3064 66.3635 23.9737C66.3635 24.641 66.2119 25.239 65.9085 25.7677C65.6139 26.2964 65.2022 26.7124 64.6735 27.0157C64.1449 27.3104 63.5512 27.4577 62.8925 27.4577ZM62.8925 26.6387C63.3779 26.6387 63.8112 26.5304 64.1925 26.3137C64.5825 26.0884 64.8859 25.772 65.1025 25.3647C65.3192 24.9574 65.4275 24.4937 65.4275 23.9737C65.4275 23.4537 65.3192 22.99 65.1025 22.5827C64.8859 22.1754 64.5825 21.8634 64.1925 21.6467C63.8112 21.4214 63.3779 21.3087 62.8925 21.3087C62.4072 21.3087 61.9695 21.4214 61.5795 21.6467C61.1982 21.8634 60.8949 22.1754 60.6695 22.5827C60.4529 22.99 60.3445 23.4537 60.3445 23.9737C60.3445 24.4937 60.4529 24.9574 60.6695 25.3647C60.8949 25.772 61.1982 26.0884 61.5795 26.3137C61.9695 26.5304 62.4072 26.6387 62.8925 26.6387ZM71.0429 27.4577C70.3843 27.4577 69.7906 27.3104 69.2619 27.0157C68.7333 26.7124 68.3173 26.2964 68.0139 25.7677C67.7106 25.239 67.5589 24.641 67.5589 23.9737C67.5589 23.3064 67.7106 22.7084 68.0139 22.1797C68.3173 21.651 68.7333 21.2394 69.2619 20.9447C69.7906 20.65 70.3843 20.5027 71.0429 20.5027C71.7016 20.5027 72.2953 20.65 72.8239 20.9447C73.3526 21.2394 73.7643 21.651 74.0589 22.1797C74.3623 22.7084 74.5139 23.3064 74.5139 23.9737C74.5139 24.641 74.3623 25.239 74.0589 25.7677C73.7643 26.2964 73.3526 26.7124 72.8239 27.0157C72.2953 27.3104 71.7016 27.4577 71.0429 27.4577ZM71.0429 26.6387C71.5283 26.6387 71.9616 26.5304 72.3429 26.3137C72.7329 26.0884 73.0363 25.772 73.2529 25.3647C73.4696 24.9574 73.5779 24.4937 73.5779 23.9737C73.5779 23.4537 73.4696 22.99 73.2529 22.5827C73.0363 22.1754 72.7329 21.8634 72.3429 21.6467C71.9616 21.4214 71.5283 21.3087 71.0429 21.3087C70.5576 21.3087 70.1199 21.4214 69.7299 21.6467C69.3486 21.8634 69.0453 22.1754 68.8199 22.5827C68.6033 22.99 68.4949 23.4537 68.4949 23.9737C68.4949 24.4937 68.6033 24.9574 68.8199 25.3647C69.0453 25.772 69.3486 26.0884 69.7299 26.3137C70.1199 26.5304 70.5576 26.6387 71.0429 26.6387ZM78.9333 23.9607L77.3213 25.4427V27.3927H76.3983V17.7467H77.3213V24.2857L81.4033 20.5547H82.5473L79.6223 23.3497L82.8203 27.3927H81.6893L78.9333 23.9607ZM89.4413 27.4577C88.8866 27.4577 88.3536 27.3797 87.8423 27.2237C87.3396 27.059 86.9453 26.8554 86.6593 26.6127L87.0753 25.8847C87.3613 26.11 87.721 26.2964 88.1543 26.4437C88.5876 26.5824 89.0383 26.6517 89.5063 26.6517C90.1303 26.6517 90.5896 26.5564 90.8843 26.3657C91.1876 26.1664 91.3393 25.889 91.3393 25.5337C91.3393 25.2824 91.257 25.0874 91.0923 24.9487C90.9276 24.8014 90.7196 24.693 90.4683 24.6237C90.217 24.5457 89.8833 24.472 89.4673 24.4027C88.9126 24.2987 88.4663 24.1947 88.1283 24.0907C87.7903 23.978 87.5 23.7917 87.2573 23.5317C87.0233 23.2717 86.9063 22.912 86.9063 22.4527C86.9063 21.8807 87.1446 21.4127 87.6213 21.0487C88.098 20.6847 88.761 20.5027 89.6103 20.5027C90.0523 20.5027 90.4943 20.5634 90.9363 20.6847C91.3783 20.7974 91.7423 20.949 92.0283 21.1397L91.6253 21.8807C91.062 21.4907 90.3903 21.2957 89.6103 21.2957C89.021 21.2957 88.5746 21.3997 88.2713 21.6077C87.9766 21.8157 87.8293 22.0887 87.8293 22.4267C87.8293 22.6867 87.9116 22.8947 88.0763 23.0507C88.2496 23.2067 88.462 23.3237 88.7133 23.4017C88.9646 23.471 89.3113 23.5447 89.7533 23.6227C90.2993 23.7267 90.737 23.8307 91.0663 23.9347C91.3956 24.0387 91.6773 24.2164 91.9113 24.4677C92.1453 24.719 92.2623 25.0657 92.2623 25.5077C92.2623 26.1057 92.011 26.5824 91.5083 26.9377C91.0143 27.2844 90.3253 27.4577 89.4413 27.4577ZM97.5696 26.9767C97.3963 27.1327 97.1796 27.254 96.9196 27.3407C96.6683 27.4187 96.404 27.4577 96.1266 27.4577C95.4853 27.4577 94.9913 27.2844 94.6446 26.9377C94.298 26.591 94.1246 26.1014 94.1246 25.4687V21.3347H92.9026V20.5547H94.1246V19.0597H95.0476V20.5547H97.1276V21.3347H95.0476V25.4167C95.0476 25.824 95.1473 26.136 95.3466 26.3527C95.5546 26.5607 95.8493 26.6647 96.2306 26.6647C96.4213 26.6647 96.6033 26.6344 96.7766 26.5737C96.9586 26.513 97.1146 26.4264 97.2446 26.3137L97.5696 26.9767ZM101.804 27.4577C101.145 27.4577 100.551 27.3104 100.023 27.0157C99.494 26.7124 99.078 26.2964 98.7747 25.7677C98.4713 25.239 98.3197 24.641 98.3197 23.9737C98.3197 23.3064 98.4713 22.7084 98.7747 22.1797C99.078 21.651 99.494 21.2394 100.023 20.9447C100.551 20.65 101.145 20.5027 101.804 20.5027C102.462 20.5027 103.056 20.65 103.585 20.9447C104.113 21.2394 104.525 21.651 104.82 22.1797C105.123 22.7084 105.275 23.3064 105.275 23.9737C105.275 24.641 105.123 25.239 104.82 25.7677C104.525 26.2964 104.113 26.7124 103.585 27.0157C103.056 27.3104 102.462 27.4577 101.804 27.4577ZM101.804 26.6387C102.289 26.6387 102.722 26.5304 103.104 26.3137C103.494 26.0884 103.797 25.772 104.014 25.3647C104.23 24.9574 104.339 24.4937 104.339 23.9737C104.339 23.4537 104.23 22.99 104.014 22.5827C103.797 22.1754 103.494 21.8634 103.104 21.6467C102.722 21.4214 102.289 21.3087 101.804 21.3087C101.318 21.3087 100.881 21.4214 100.491 21.6467C100.109 21.8634 99.806 22.1754 99.5807 22.5827C99.364 22.99 99.2557 23.4537 99.2557 23.9737C99.2557 24.4937 99.364 24.9574 99.5807 25.3647C99.806 25.772 100.109 26.0884 100.491 26.3137C100.881 26.5304 101.318 26.6387 101.804 26.6387ZM108.043 21.8937C108.26 21.4344 108.58 21.0877 109.005 20.8537C109.438 20.6197 109.971 20.5027 110.604 20.5027V21.3997L110.383 21.3867C109.664 21.3867 109.1 21.6077 108.693 22.0497C108.286 22.4917 108.082 23.1114 108.082 23.9087V27.3927H107.159V20.5547H108.043V21.8937ZM118.166 24.2597H112.446C112.498 24.9704 112.771 25.5467 113.265 25.9887C113.759 26.422 114.383 26.6387 115.137 26.6387C115.561 26.6387 115.951 26.565 116.307 26.4177C116.662 26.2617 116.97 26.0364 117.23 25.7417L117.75 26.3397C117.446 26.7037 117.065 26.981 116.606 27.1717C116.155 27.3624 115.657 27.4577 115.111 27.4577C114.409 27.4577 113.785 27.3104 113.239 27.0157C112.701 26.7124 112.281 26.2964 111.978 25.7677C111.674 25.239 111.523 24.641 111.523 23.9737C111.523 23.3064 111.666 22.7084 111.952 22.1797C112.246 21.651 112.645 21.2394 113.148 20.9447C113.659 20.65 114.231 20.5027 114.864 20.5027C115.496 20.5027 116.064 20.65 116.567 20.9447C117.069 21.2394 117.464 21.651 117.75 22.1797C118.036 22.6997 118.179 23.2977 118.179 23.9737L118.166 24.2597ZM114.864 21.2957C114.205 21.2957 113.65 21.508 113.2 21.9327C112.758 22.3487 112.506 22.8947 112.446 23.5707H117.295C117.234 22.8947 116.978 22.3487 116.528 21.9327C116.086 21.508 115.531 21.2957 114.864 21.2957Z" fill="#241400"/>
<line x1="48" y1="15.8927" x2="175" y2="15.8927" stroke="black" stroke-opacity="0.59"/>
<path d="M39.0037 9.90427C38.8339 8.62752 38.81 6.4285 39.9958 5.6901C40.017 5.67656 40.0328 5.65701 40.0514 5.64021C41.0209 5.33011 41.6919 4.89492 41.1652 4.30931L26.8633 0L3.70522 3.2197C3.70522 3.2197 1.05333 3.59874 1.29023 7.71878C1.41883 9.96118 2.12213 11.0624 2.73719 11.6044L0.836863 12.1771C0.309419 12.7627 0.980256 13.1981 1.94991 13.5076C1.96834 13.5249 1.98388 13.5444 2.00544 13.5579C3.19056 14.2969 3.16775 16.4957 2.99728 17.7727C-1.26025 18.9817 0.268056 19.3756 0.268056 19.3756L1.20199 19.6016C0.545064 20.1952 -0.107347 21.3209 0.0148627 23.4559C0.251887 27.5752 2.4301 27.8595 2.4301 27.8595L17.5846 32.7852L40.4585 27.2448C40.4585 27.2448 41.9873 26.8502 37.7286 25.6412C37.5574 24.3662 37.5336 22.1676 38.7215 21.4267C38.7433 21.4136 38.7592 21.3936 38.7769 21.3771C39.7465 21.067 40.4169 20.6322 39.89 20.0466L38.8958 19.7464C39.5589 19.3465 40.5549 18.3015 40.7109 15.5871C40.8186 13.72 40.3315 12.6265 39.7677 11.9827L41.7328 11.5072C41.733 11.5079 43.2618 11.1133 39.0037 9.90427ZM19.8711 9.8515L23.7176 9.06096L36.7167 6.38964L38.6534 5.9913C38.0346 7.1239 38.0605 8.6739 38.1629 9.67013C38.1854 9.8955 38.2112 10.1013 38.2363 10.2577L36.1165 10.7848L19.7094 14.8664L19.8711 9.8515ZM3.34799 13.8604L5.28442 14.2587L17.7682 16.825L18.8588 17.0484L22.1294 17.7206L22.2907 22.7356L5.42781 18.5402L3.76538 18.1271C3.78982 17.9704 3.81565 17.7648 3.83908 17.5388C3.94086 16.5433 3.96731 14.993 3.34799 13.8604ZM2.59568 7.52049C2.57224 6.42461 2.76753 5.63206 3.16223 5.22921C3.41342 4.972 3.70986 4.91848 3.91316 4.91848C4.02058 4.91848 4.09792 4.9334 4.10318 4.9334L14.0814 8.18644L19.0596 9.80951L18.8963 14.8595L4.93032 10.944L4.1933 10.7376C4.16623 10.7299 4.1295 10.7246 4.10118 10.7234C4.04364 10.7193 2.66286 10.5922 2.59568 7.52049ZM17.6207 30.5974L2.91806 26.4753C2.89086 26.4674 2.85451 26.4622 2.82619 26.4608C2.76765 26.4569 1.38624 26.3299 1.31943 23.259C1.29562 22.1617 1.49191 21.3699 1.88586 20.9667C2.13768 20.7095 2.43424 20.656 2.63717 20.656C2.74484 20.656 2.82192 20.6704 2.82756 20.6704C2.82756 20.6704 2.82819 20.6704 2.82756 20.6704L17.783 25.5473L17.6207 30.5974ZM36.8866 25.4073C36.9098 25.6334 36.9356 25.8388 36.9607 25.9955L18.4334 30.6045L18.5954 25.5895L22.5563 24.7752L23.1413 24.9167L25.3338 24.2041L35.4404 22.1273L37.3778 21.7287C36.7584 22.8612 36.784 24.4118 36.8866 25.4073ZM37.9071 18.5917C37.8734 18.5925 37.8397 18.597 37.808 18.607L36.4106 18.9982L23.1057 22.7289L22.943 17.679L27.3082 16.2552L37.878 12.8081C37.8794 12.8075 38.4341 12.6843 38.8412 13.0983C39.2353 13.5011 39.4308 14.2937 39.4077 15.3896C39.3388 18.4602 37.9574 18.5878 37.9071 18.5917Z" fill="#720418"/>
</svg>

    